<svg width="20" height="24" viewBox="0 0 20 24" fill="none" xmlns="http://www.w3.org/2000/svg">
<path d="M8.12261 8.32C8.27586 8.72 7.50958 9.6 7.73946 9.84C8.04598 10.16 8.88889 9.28 9.1954 9.44C9.57854 9.6 9.57854 10.8 9.96169 10.8C10.3448 10.8 10.4215 9.6 10.728 9.44C11.1111 9.28 11.954 10.08 12.1839 9.84C12.4904 9.52 11.6475 8.64 11.8008 8.32C11.954 7.92 13.1034 7.92 13.1034 7.52C13.1034 7.12 11.954 7.04 11.8008 6.72C11.6475 6.32 12.4138 5.44 12.1839 5.2C11.8774 4.88 11.0345 5.76 10.728 5.6C10.3448 5.44 10.3448 4.24 9.96169 4.24C9.57854 4.24 9.50192 5.44 9.1954 5.6C8.81226 5.76 7.96935 4.96 7.73946 5.2C7.43295 5.52 8.27586 6.4 8.12261 6.72C7.96935 7.12 6.81992 7.12 6.81992 7.52C6.81992 7.92 7.96935 7.92 8.12261 8.32ZM16.8582 3.2V0.64C16.8582 0.32 16.6284 0 16.2452 0H3.60153C3.29502 0.08 3.06513 0.32 3.06513 0.64V3.2C1.99234 3.2 0 3.52 0 5.84C0 7.6 1.22605 10.24 3.06513 10.56C3.37165 14.08 5.82375 16.48 8.04598 16.48H8.35249V19.44H6.7433C5.97701 19.44 5.28736 20.08 5.28736 20.96V23.36C5.28736 23.68 5.51724 24 5.90038 24H14.0996C14.4061 24 14.7126 23.76 14.7126 23.36V20.96C14.7126 20.16 14.0996 19.44 13.2567 19.44H11.6475V16.48C14.7126 16.32 16.6284 13.52 16.9349 10.64C18.7739 10.4 20 7.68 20 5.92C19.9234 3.52 17.931 3.2 16.8582 3.2ZM3.06513 9.36C2.06897 8.96 1.14943 7.2 1.14943 5.84C1.14943 5.04 1.53257 4.48 3.06513 4.4V9.36ZM13.1801 20.64C13.3333 20.64 13.4866 20.8 13.4866 20.96V22.8H6.43678V20.96C6.43678 20.8 6.59004 20.64 6.7433 20.64H13.1801ZM9.50191 19.44V16.48H10.4215V19.44H9.50191ZM15.7088 9.84C15.7088 12.08 14.3295 15.28 11.341 15.28H8.04598C6.2069 15.28 4.13793 13.04 4.13793 9.84V1.28H15.7088V9.84ZM16.8582 9.36V4.4C18.3908 4.48 18.6973 5.04 18.6973 5.92C18.7739 7.28 17.8544 9.04 16.8582 9.36Z" fill="#979797"/>
</svg>
