<svg width="97" height="97" viewBox="0 0 97 97" fill="none" xmlns="http://www.w3.org/2000/svg">
<circle cx="48.5" cy="48.5" r="48.5" fill="#A1C4F9"/>
<circle cx="48.5" cy="48.5" r="39.5" fill="white"/>
<path d="M61.816 56.765V65H36.571V58.475L47.956 47.945C48.946 47.015 49.606 46.22 49.936 45.56C50.266 44.9 50.431 44.255 50.431 43.625C50.431 42.845 50.161 42.245 49.621 41.825C49.111 41.375 48.361 41.15 47.371 41.15C46.411 41.15 45.511 41.405 44.671 41.915C43.831 42.425 43.186 43.145 42.736 44.075L34.726 40.07C35.926 37.82 37.681 36.05 39.991 34.76C42.301 33.44 45.091 32.78 48.361 32.78C50.851 32.78 53.056 33.185 54.976 33.995C56.896 34.805 58.396 35.96 59.476 37.46C60.556 38.96 61.096 40.685 61.096 42.635C61.096 44.375 60.721 46.01 59.971 47.54C59.251 49.04 57.826 50.75 55.696 52.67L51.196 56.765H61.816Z" fill="#A1C4F9"/>
</svg>
