<svg width="97" height="97" viewBox="0 0 97 97" fill="none" xmlns="http://www.w3.org/2000/svg">
<circle cx="48.5" cy="48.5" r="48.5" fill="#C6F0C2"/>
<circle cx="48.5" cy="48.5" r="39.5" fill="white"/>
<path d="M54.1692 45.965C56.5992 46.565 58.4592 47.66 59.7492 49.25C61.0692 50.81 61.7292 52.7 61.7292 54.92C61.7292 56.81 61.2042 58.58 60.1542 60.23C59.1342 61.85 57.5442 63.17 55.3842 64.19C53.2242 65.21 50.5392 65.72 47.3292 65.72C45.1092 65.72 42.8892 65.48 40.6692 65C38.4792 64.52 36.5592 63.815 34.9092 62.885L38.5092 55.055C39.7992 55.805 41.1792 56.375 42.6492 56.765C44.1492 57.155 45.5892 57.35 46.9692 57.35C48.1992 57.35 49.1892 57.14 49.9392 56.72C50.6892 56.3 51.0642 55.7 51.0642 54.92C51.0642 53.48 49.8192 52.76 47.3292 52.76H43.1442V46.235L47.7792 41.51H36.5292V33.5H60.0192V40.025L54.1692 45.965Z" fill="#C6F0C2"/>
</svg>
